<?xml version="1.0" encoding="utf-8"?>
<!-- Generator: Adobe Illustrator 16.0.0, SVG Export Plug-In . SVG Version: 6.00 Build 0)  -->
<!DOCTYPE svg PUBLIC "-//W3C//DTD SVG 1.1//EN" "http://www.w3.org/Graphics/SVG/1.1/DTD/svg11.dtd">
<svg version="1.1" id="Layer_1" xmlns="http://www.w3.org/2000/svg" xmlns:xlink="http://www.w3.org/1999/xlink" x="0px" y="0px"
	 width="400px" height="400px" viewBox="0 0 400 400" enable-background="new 0 0 400 400" xml:space="preserve">
<g>
	<g>
		<g>
			<path d="M82.801,70.044c29.146-26.302,67.182-42.935,109.059-44.853V0.178C143.129,2.13,98.885,21.506,65.197,52.261
				L82.801,70.044z"/>
			<path d="M25.194,191.859c1.947-42.503,19.054-81.047,46.042-110.359L53.635,63.722C22.088,97.588,2.159,142.411,0.178,191.859
				H25.194z"/>
			<path d="M208.14,0.178v25.013c42.503,1.947,81.047,19.055,110.359,46.044l17.778-17.601
				C302.411,22.087,257.588,2.159,208.14,0.178z"/>
			<path d="M70.046,317.197c-26.303-29.145-42.935-67.181-44.853-109.058H0.178c1.952,48.732,21.328,92.977,52.084,126.665
				L70.046,317.197z"/>
			<path d="M374.804,208.14c-1.946,42.503-19.054,81.046-46.041,110.356l17.603,17.781c31.547-33.866,51.475-78.688,53.455-128.137
				H374.804z"/>
			<path d="M191.86,374.8c-42.503-1.946-81.047-19.052-110.358-46.037l-17.78,17.602c33.867,31.547,78.689,51.476,128.138,53.456
				V374.8z"/>
			<path d="M329.954,82.801c26.302,29.147,42.934,67.183,44.851,109.059h25.017c-1.951-48.732-21.327-92.977-52.083-126.665
				L329.954,82.801z"/>
			<path d="M317.196,329.953c-29.146,26.3-67.181,42.931-109.056,44.848v25.021c48.731-1.951,92.976-21.327,126.664-52.083
				L317.196,329.953z"/>
		</g>
	</g>
</g>
</svg>
